<svg width="18" height="18" viewBox="0 0 18 18" fill="none" xmlns="http://www.w3.org/2000/svg">
<path d="M13.4389 10.7401C13.2446 10.9283 13.1554 11.2006 13.1996 11.4676L13.8664 15.1576C13.9226 15.4703 13.7906 15.7868 13.5289 15.9676C13.2724 16.1551 12.9311 16.1776 12.6514 16.0276L9.32963 14.2951C9.21413 14.2336 9.08588 14.2006 8.95463 14.1968H8.75138C8.68088 14.2073 8.61188 14.2298 8.54888 14.2643L5.22638 16.0051C5.06213 16.0876 4.87613 16.1168 4.69388 16.0876C4.24988 16.0036 3.95363 15.5806 4.02638 15.1343L4.69388 11.4443C4.73813 11.1751 4.64888 10.9013 4.45463 10.7101L1.74638 8.08506C1.51988 7.86531 1.44113 7.53531 1.54463 7.23756C1.64513 6.94056 1.90163 6.72381 2.21138 6.67506L5.93888 6.13431C6.22238 6.10506 6.47138 5.93256 6.59888 5.67756L8.24138 2.31006C8.28038 2.23506 8.33063 2.16606 8.39138 2.10756L8.45888 2.05506C8.49413 2.01606 8.53463 1.98381 8.57963 1.95756L8.66138 1.92756L8.78888 1.87506H9.10463C9.38663 1.90431 9.63488 2.07306 9.76463 2.32506L11.4289 5.67756C11.5489 5.92281 11.7821 6.09306 12.0514 6.13431L15.7789 6.67506C16.0939 6.72006 16.3571 6.93756 16.4614 7.23756C16.5596 7.53831 16.4749 7.86831 16.2439 8.08506L13.4389 10.7401Z" fill="#191726"/>
</svg>
